<?xml version="1.0" encoding="utf-8"?>
<!-- Generator: Adobe Illustrator 28.2.0, SVG Export Plug-In . SVG Version: 6.00 Build 0)  -->
<svg version="1.1" id="학부_로고_xA0_이미지_00000000909253453503156490000012304126712426196610_"
	 xmlns="http://www.w3.org/2000/svg" xmlns:xlink="http://www.w3.org/1999/xlink" x="0px" y="0px" viewBox="0 0 1898.16 1900.08"
	 style="enable-background:new 0 0 1898.16 1900.08;" xml:space="preserve">
<style type="text/css">
	.st0{fill:#FFFFFF;}
</style>
<path class="st0" d="M1884.37,863.35c-1.64-17.67-3.62-35.3-6.21-52.85c-3.24-21.97-7.3-43.8-12.09-65.49
	c-10.77-48.76-25.36-96.33-43.86-142.7c-39.62-99.34-94.57-189.36-165-269.83c-92.04-105.17-201.96-186.14-329.81-242.69
	c-50.48-22.33-102.58-39.92-156.25-52.86c-19.88-4.79-39.85-9.11-60.03-12.41c-12.77-2.08-25.55-4.11-38.38-5.8
	c-13.15-1.73-26.33-3.24-39.54-4.45c-11.78-1.08-23.6-1.87-35.41-2.32c-17.41-0.67-34.84-1.3-52.27-1.27
	c-28.31,0.04-56.59,1.3-84.77,4.23c-12.56,1.31-25.13,2.54-37.64,4.23c-18.36,2.48-36.63,5.56-54.82,9.12
	c-31.84,6.23-63.27,14.05-94.25,23.65c-125.65,38.91-238.4,101.25-337.7,187.48C212.89,346.6,123.06,477.17,66.99,630.84
	C52.3,671.09,40.68,712.25,31.85,754.2c-3.46,16.42-6.55,32.9-9.12,49.48c-1.88,12.16-3.52,24.36-4.94,36.58
	c-1.32,11.41-2.24,22.87-3.27,34.31c-1.31,14.49-2.15,29.02-2.49,43.57c-0.6,25.44-0.84,50.9,0.7,76.32
	c0.94,15.48,1.88,30.96,3.29,46.4c1.52,16.71,3.7,33.35,6.24,49.95c3.39,22.12,7.54,44.08,12.45,65.91
	c11.61,51.53,27.57,101.67,47.76,150.48c70.27,169.9,189.95,316.64,343.89,420.4c81.67,55.05,169.81,96.28,264.5,123.48
	c24.72,7.1,49.68,13.15,74.9,18.21c17.86,3.58,35.81,6.65,53.85,9.15c12.19,1.69,24.42,3.09,36.67,4.24
	c14.48,1.37,28.98,2.65,43.51,3.41c16.6,0.86,33.24,1.1,49.86,1.61c28.18-0.21,56.27-1.55,84.33-4.06
	c16.56-1.48,33.06-3.39,49.52-5.73c18.67-2.65,37.22-5.91,55.7-9.67c37.91-7.7,75.18-17.77,111.79-30.23
	c110.08-37.47,209.94-93.28,299.16-167.85c120.67-100.86,210.85-224.15,270.22-369.83c24.86-61,42.66-124.07,54.02-188.94
	c4.71-26.93,8.26-54.03,10.45-81.29c1.3-16.25,2.36-32.55,2.84-48.84C1888.83,941.89,1888.02,902.58,1884.37,863.35z M401.26,415.72
	c65.64-67.35,141.02-121,226.24-160.78c46.16-21.55,94.06-38.17,143.57-50.11c17.23-4.16,34.6-7.72,52.1-10.53
	c12.61-2.03,25.3-3.59,37.97-5.22c15.54-1.99,31.16-3.09,46.8-3.99c25.57-1.47,51.15-1.37,76.72-0.42
	c13.41,0.5,26.81,1.59,40.17,2.84c13.99,1.31,27.93,3.16,41.83,5.27c25.6,3.89,50.91,9.11,75.97,15.61
	c37.01,9.6,73.07,21.95,108.19,37.04c0.87,0.37,1.67,0.89,2.5,1.33c0.2,0.08,0.41,0.17,0.61,0.25c-0.82,2.43-0.98,4.95-0.97,7.51
	c0.04,37.58,0.07,75.16,0.07,112.74c0,265.45,0,530.9-0.01,796.35c0,0.97,0.08,1.97,0.04,3.04c-0.05,1.32-1.73,1.86-2.56,0.84
	c-0.14-0.18-0.28-0.35-0.4-0.53c-4.59-6.55-9.2-13.07-13.7-19.68c-52.7-77.45-105.38-154.92-158.06-232.38
	c-53.76-79.05-107.52-158.1-161.3-237.14c-57.01-83.8-114.04-167.59-171.05-251.38c-0.18-0.26-0.4-0.51-0.55-0.79
	c-2.19-4.1-5.52-5.58-10.23-5.54c-25.74,0.19-51.49,0.12-77.24,0.13c-56.91,0.02-113.82,0.03-170.73,0.06l0,0l-86.11-0.59
	c-0.05,0-0.09,0-0.14-0.01c-0.83-0.09-1.67-0.17-2.5-0.27c-0.09,0.09-0.18,0.17-0.27,0.26l-0.52,0
	C398.9,418.31,400.04,416.97,401.26,415.72z M984.61,1081.87c-24.5,0.64-215.62,0.92-236.54,0.36c-0.65-0.02-1.3-0.11-2.01-0.22
	c-0.58-0.08-1.06-0.51-1.2-1.08c-0.16-0.64-0.31-1.24-0.36-1.85c-0.1-1.11-0.03-2.24-0.03-3.36c0-114.5,0-228.99,0-343.49
	c0-0.88,0.02-1.75,0.05-2.65c0.04-1.42,1.86-1.9,2.66-0.72c0.01,0.01,0.01,0.02,0.02,0.02c5.61,8.17,11.18,16.36,16.75,24.56
	c17.79,26.17,35.56,52.35,53.36,78.52c15.28,22.47,30.57,44.92,45.85,67.39c16.72,24.58,33.43,49.17,50.15,73.74
	c15.47,22.73,30.94,45.44,46.42,68.17c8.19,12.02,16.38,24.04,24.56,36.06c0.5,0.74,0.98,1.5,1.5,2.34
	C986.38,1080.62,985.73,1081.84,984.61,1081.87z M453.62,1531.46c-10.68-9.15-21.21-18.47-31.29-28.29
	c-6.64-6.47-13.43-12.79-19.87-19.46c-13.54-14.03-26.66-28.44-39.2-43.39c-20.67-24.65-39.68-50.49-57.13-77.5
	c-9.45-14.63-18.45-29.55-26.71-44.89c-5.68-10.55-11.37-21.11-16.66-31.86c-12.77-25.96-24.02-52.58-33.75-79.85
	c-8.7-24.39-16.14-49.14-22.34-74.27c-3.94-15.96-7.4-32.03-10.16-48.24c-2.03-11.95-3.88-23.94-5.57-35.94
	c-1-7.11-1.59-14.27-2.27-21.42c-0.9-9.53-1.71-19.08-2.56-28.62c-0.06-0.64-0.06-1.28-0.1-1.92c-1.19-20.28-1.41-40.57-1.07-60.87
	c0.19-11.34,0.54-22.69,1.19-34.01c0.61-10.71,1.91-21.38,2.84-32.07c0.51-5.79,1.12-11.57,1.87-17.33
	c1.2-9.23,2.45-18.46,4.06-27.63c2.21-12.57,4.7-25.09,7.22-37.6c3.12-15.5,7.13-30.78,11.42-45.99
	c8.54-30.33,19.06-59.96,31.27-88.99c8.56-20.33,18.09-40.21,28.4-59.72c0.8-1.51,1.91-2.84,2.88-4.26l0.8-0.28
	c99.63,0,199.27,0.01,298.9,0.02c0.29,0,0.58,0.2,1.22,0.43c0.07,1.24,0.23,2.63,0.23,4.02c0.01,29.27,0,58.53,0,87.8
	c0,2.72-0.01,5.44-0.01,8.16c0,192.58-0.01,638.07-0.02,834.27l0,0l-1.06,94.82c-6.25-3.49-64.06-39.27-85.54-55.41
	C477.97,1551.66,465.64,1541.76,453.62,1531.46z M1507.18,1472.7c-2.06,2.41-4.02,4.92-6.2,7.2c-11.16,11.68-22.77,22.91-34.7,33.79
	c-16.07,14.64-32.72,28.6-49.94,41.89c-25.34,19.56-51.82,37.41-79.4,53.65c-17.49,10.3-35.34,19.97-53.65,28.75
	c-25.07,12.03-50.67,22.8-76.87,32.17c-28.6,10.23-57.74,18.55-87.31,25.36c-13.99,3.22-28.08,6.01-42.28,8.18
	c-7.1,1.08-14.16,2.39-21.26,3.39c-6.48,0.91-12.99,1.54-19.49,2.29c-4.6,0.53-9.19,1.07-13.8,1.54c-3.97,0.41-7.94,0.82-11.92,1.09
	c-6.69,0.45-13.4,0.76-20.09,1.16c-20.6,1.23-41.22,1.21-61.84,0.8c-9.57-0.19-19.14-0.96-28.7-1.53
	c-5.26-0.31-10.52-0.64-15.77-1.13c-8.9-0.83-17.79-1.72-26.66-2.74c-8.08-0.93-16.16-1.96-24.21-3.17
	c-8.05-1.21-16.07-2.59-24.07-4.07c-3.91-0.72-8.78-1.74-14.09-2.93c-2.74-0.61-5.61-1.27-8.51-1.94
	c-19.52-4.55-42.2-12.17-42.2-12.69c-0.03-2.31-0.07-4.62-0.07-6.93c0-13.05,0-27.33,0-42.52c0-148.06,0-381.45,0-382.9
	c0-0.7,0.51-1.31,1.21-1.42c0.67-0.11,4.73-0.26,6.17-0.26c58.69,0,117.39,0.01,176.08,0c55.34-0.02,110.67,0,166.01-0.2
	c6.11-0.02,10.03,2.07,13.46,7.14c46.45,68.56,93.06,137.01,139.63,205.49c1.44,2.12,2.91,4.21,4.25,6.39
	c1.87,3.04,4.56,4.34,8.05,4.2c0.96-0.04,1.92,0,2.88-0.01c59.49-0.05,118.99-0.11,178.48-0.16c20.15-0.02,40.3-0.03,60.45-0.05
	c2.22,0,4.44-0.05,6.67-0.08C1507.37,1472.54,1507.28,1472.62,1507.18,1472.7z M1714.37,981.55c-0.54,15.33-1.76,30.64-3.31,45.92
	c-1.81,17.82-4.16,35.56-7.23,53.19c-7.12,40.84-17.44,80.87-31.13,120.02c-12.31,35.21-27.04,69.37-44.34,102.41
	c-0.36,0.68-0.76,1.33-1.18,1.99c-0.33,0.51-0.94,0.75-1.53,0.63c-2.31-0.46-4.67-0.47-7.03-0.47c-63.98,0.01-127.95,0.01-191.93,0
	c-1.5,0-2.99-0.07-4.64-0.12c-0.74-0.03-1.33-0.61-1.38-1.34c-0.06-0.8-0.11-1.52-0.11-2.23c-0.02-3.52,0.01-7.04,0.01-10.56
	c-0.01-219.27-0.01-438.55-0.03-657.82c-0.01-86.85-0.04-173.69-0.07-260.54c0-4.8-0.06-9.6-0.03-14.39
	c0.03-4.02-0.3-7.98-1.28-11.88c-0.12-0.48-0.15-0.99-0.17-1.5c3.54,2.69,7.12,5.32,10.58,8.11
	c71.65,57.87,131.15,126.31,178.3,205.42c29.5,49.48,53.04,101.69,70.67,156.54c9.99,31.07,17.95,62.65,23.82,94.75
	c3.13,17.14,5.71,34.36,7.67,51.67c1.82,16.05,3.08,32.14,3.95,48.27C1715.27,933.59,1715.22,957.57,1714.37,981.55z"/>
</svg>
